<svg width="20" height="20" fill="none" xmlns="http://www.w3.org/2000/svg"><path d="M17.857 0c.595 0 1.101.208 1.518.625.417.417.625.923.625 1.518v15.714c0 .595-.208 1.101-.625 1.518a2.066 2.066 0 0 1-1.518.625h-6.116v-6.786h2.59L14.82 10h-3.08V7.902c0-1.131.595-1.697 1.786-1.697h1.384V3.482a13.95 13.95 0 0 0-2.456-.223c-.863 0-1.607.164-2.232.491-.595.327-1.071.818-1.428 1.473-.357.655-.536 1.429-.536 2.322V10H5.446v3.214H8.26V20H2.143a2.066 2.066 0 0 1-1.518-.625A2.067 2.067 0 0 1 0 17.857V2.143C0 1.548.208 1.042.625.625A2.067 2.067 0 0 1 2.143 0h15.714z" fill="#939397"/></svg>