<svg width="32" height="32" fill="none" xmlns="http://www.w3.org/2000/svg"><path d="M28.571 0c.953 0 1.762.333 2.429 1 .667.667 1 1.476 1 2.429V28.57c0 .953-.333 1.762-1 2.429-.667.667-1.476 1-2.429 1h-9.785V21.143h4.143L23.714 16h-4.928v-3.357c0-1.81.952-2.714 2.857-2.714h2.214V5.57a22.32 22.32 0 0 0-3.928-.357c-1.381 0-2.572.262-3.572.786-.952.524-1.714 1.31-2.286 2.357-.571 1.048-.857 2.286-.857 3.714V16h-4.5v5.143h4.5V32H3.43c-.953 0-1.762-.333-2.429-1-.667-.667-1-1.476-1-2.429V3.43C0 2.476.333 1.667 1 1c.667-.667 1.476-1 2.429-1H28.57z" fill="#4267B2"/></svg>