<svg width="20" height="20" fill="none" xmlns="http://www.w3.org/2000/svg"><path d="M18.571 0c.387 0 .715.149.983.446.297.268.446.596.446.983V18.57c0 .387-.149.715-.446.983a1.272 1.272 0 0 1-.983.446H1.43c-.387 0-.73-.149-1.027-.446A1.336 1.336 0 0 1 0 18.57V1.43C0 1.042.134.714.402.446.699.15 1.042 0 1.429 0H18.57zM6.027 17.143h.044V7.589h-2.99v9.554h2.946zM3.348 5.803c.328.328.73.492 1.206.492s.878-.164 1.205-.491c.357-.358.536-.76.536-1.206 0-.476-.179-.878-.536-1.205a1.572 1.572 0 0 0-1.205-.536c-.477 0-.878.179-1.206.536-.327.327-.49.729-.49 1.205 0 .447.163.848.49 1.206zm13.795 11.34V11.92c0-.715-.045-1.325-.134-1.83a4.256 4.256 0 0 0-.491-1.385c-.238-.446-.61-.773-1.116-.982-.476-.238-1.072-.357-1.786-.357-.684 0-1.28.149-1.786.447-.476.297-.818.654-1.026 1.07h-.045V7.59H7.902v9.554h2.99V12.41c0-.744.12-1.34.358-1.786.238-.446.7-.67 1.384-.67.357 0 .655.075.893.224a.977.977 0 0 1 .446.67c.09.297.149.565.179.803.03.208.044.49.044.848v4.643h2.947z" fill="#939397"/></svg>