<svg width="32" height="32" fill="none" xmlns="http://www.w3.org/2000/svg"><path d="M10.143 10.214C11.762 8.595 13.714 7.786 16 7.786s4.214.81 5.786 2.428c1.619 1.572 2.428 3.5 2.428 5.786 0 2.286-.81 4.238-2.428 5.857-1.572 1.572-3.5 2.357-5.786 2.357-2.286 0-4.238-.785-5.857-2.357C8.57 20.238 7.786 18.286 7.786 16s.785-4.214 2.357-5.786zm2.071 9.572c1.048 1.047 2.31 1.571 3.786 1.571s2.738-.524 3.786-1.571c1.047-1.048 1.571-2.31 1.571-3.786s-.524-2.738-1.571-3.786c-1.048-1.047-2.31-1.571-3.786-1.571s-2.738.524-3.786 1.571c-1.047 1.048-1.571 2.31-1.571 3.786s.524 2.738 1.571 3.786zM25.857 6.143c.381.333.572.762.572 1.286 0 .523-.19.976-.572 1.357-.333.38-.762.571-1.286.571-.523 0-.976-.19-1.357-.571a1.854 1.854 0 0 1-.571-1.357c0-.524.19-.953.571-1.286a1.855 1.855 0 0 1 1.357-.572c.524 0 .953.19 1.286.572zm6.072 3.286C31.976 10.714 32 12.905 32 16c0 3.095-.024 5.286-.071 6.571-.143 2.905-1.024 5.167-2.643 6.786-1.572 1.572-3.81 2.405-6.715 2.5-1.285.095-3.476.143-6.571.143-3.095 0-5.286-.048-6.571-.143-2.905-.143-5.143-1-6.715-2.571a6.893 6.893 0 0 1-1.5-2c-.38-.762-.666-1.5-.857-2.215-.143-.714-.214-1.547-.214-2.5C.048 21.286 0 19.095 0 16c0-3.095.048-5.31.143-6.643.143-2.857 1-5.071 2.571-6.643C4.286 1.095 6.524.214 9.43.071 10.714.024 12.905 0 16 0s5.286.024 6.571.071c2.905.143 5.143 1.024 6.715 2.643 1.619 1.572 2.5 3.81 2.643 6.715zm-3.429 16c.143-.381.262-.858.357-1.429.095-.619.167-1.333.214-2.143a39.12 39.12 0 0 0 .072-2.071v-7.572c0-.524-.024-1.19-.072-2a20.19 20.19 0 0 0-.214-2.143c-.095-.619-.214-1.119-.357-1.5-.571-1.476-1.595-2.5-3.071-3.071-.381-.143-.881-.262-1.5-.357a20.214 20.214 0 0 0-2.143-.214 35.297 35.297 0 0 0-2-.072h-7.572c-.524 0-1.214.024-2.071.072-.81.047-1.524.119-2.143.214a7.78 7.78 0 0 0-1.429.357c-1.476.571-2.5 1.595-3.071 3.071-.143.381-.262.881-.357 1.5a20.212 20.212 0 0 0-.214 2.143c-.048.81-.072 1.476-.072 2v8.572c.048.714.095 1.333.143 1.857.048.476.12.976.214 1.5.096.524.19.952.286 1.286.619 1.476 1.643 2.5 3.071 3.071.381.143.858.262 1.429.357.619.095 1.333.167 2.143.214a38.51 38.51 0 0 0 2 .072h7.643c.523 0 1.19-.024 2-.072a20.192 20.192 0 0 0 2.143-.214c.619-.095 1.119-.214 1.5-.357 1.476-.619 2.5-1.643 3.071-3.071z" fill="url(#paint0_linear)"/><defs><linearGradient id="paint0_linear" x1="0" y1="31.746" x2="32.508" y2=".254" gradientUnits="userSpaceOnUse"><stop stop-color="#FFC047"/><stop offset=".49" stop-color="#E6007D"/><stop offset="1" stop-color="#5541D6"/></linearGradient></defs></svg>