<svg width="20" height="20" fill="none" xmlns="http://www.w3.org/2000/svg"><path d="M6.34 6.384C7.35 5.372 8.57 4.866 10 4.866c1.429 0 2.634.506 3.616 1.518 1.012.982 1.518 2.187 1.518 3.616 0 1.429-.506 2.649-1.518 3.66-.982.983-2.187 1.474-3.616 1.474-1.429 0-2.649-.491-3.66-1.473-.983-1.012-1.474-2.232-1.474-3.661 0-1.429.491-2.634 1.473-3.616zm1.294 5.982a3.225 3.225 0 0 0 2.366.982c.923 0 1.711-.327 2.366-.982A3.225 3.225 0 0 0 13.348 10c0-.923-.327-1.711-.982-2.366A3.225 3.225 0 0 0 10 6.652c-.923 0-1.711.327-2.366.982A3.225 3.225 0 0 0 6.652 10c0 .923.327 1.711.982 2.366zM16.16 3.84c.238.209.357.476.357.804 0 .327-.12.61-.357.848a1.019 1.019 0 0 1-.804.357c-.327 0-.61-.119-.848-.357a1.159 1.159 0 0 1-.357-.848c0-.328.119-.595.357-.804.238-.238.52-.357.848-.357.328 0 .595.12.804.357zm3.794 2.054c.03.803.045 2.172.045 4.107 0 1.934-.015 3.304-.045 4.107-.089 1.816-.64 3.23-1.651 4.241-.983.982-2.381 1.503-4.197 1.563-.803.06-2.172.089-4.107.089s-3.304-.03-4.107-.09c-1.816-.089-3.214-.624-4.197-1.606a4.309 4.309 0 0 1-.937-1.25 7.329 7.329 0 0 1-.536-1.384 8.045 8.045 0 0 1-.134-1.563C.03 13.304 0 11.935 0 10s.03-3.318.09-4.152c.089-1.785.624-3.17 1.606-4.152C2.68.685 4.077.134 5.893.045 6.696.015 8.065 0 10 0c1.934 0 3.304.015 4.107.045 1.816.089 3.214.64 4.197 1.651 1.012.983 1.562 2.381 1.651 4.197zm-2.142 10a4.86 4.86 0 0 0 .223-.893c.06-.387.104-.833.134-1.34.03-.535.044-.966.044-1.294V7.634c0-.327-.015-.744-.044-1.25-.03-.536-.075-.982-.134-1.34a4.822 4.822 0 0 0-.224-.937c-.357-.922-.997-1.562-1.92-1.92a4.837 4.837 0 0 0-.937-.223 12.55 12.55 0 0 0-1.339-.134c-.506-.03-.922-.044-1.25-.044H7.634c-.327 0-.759.015-1.295.044-.506.03-.952.075-1.339.134a4.84 4.84 0 0 0-.893.224c-.922.357-1.562.997-1.92 1.92-.089.237-.163.55-.223.937-.06.357-.104.803-.134 1.339-.03.506-.044.923-.044 1.25v5.356c.03.447.06.833.089 1.16a11.833 11.833 0 0 0 .313 1.742c.386.922 1.026 1.562 1.92 1.92.237.089.535.163.892.223.387.06.833.104 1.34.134.535.03.952.044 1.25.044h4.776c.328 0 .744-.015 1.25-.044.536-.03.982-.075 1.34-.134.386-.06.699-.134.937-.224.922-.386 1.562-1.026 1.92-1.92z" fill="#939397"/></svg>