<svg width="32" height="32" fill="none" xmlns="http://www.w3.org/2000/svg"><path d="M13.357 12.143L20.143 16l-6.786 3.857v-7.714zM32 3.429V28.57c0 .953-.333 1.762-1 2.429-.667.667-1.476 1-2.429 1H3.43c-.953 0-1.762-.333-2.429-1-.667-.667-1-1.476-1-2.429V3.43C0 2.476.333 1.667 1 1c.667-.667 1.476-1 2.429-1H28.57c.953 0 1.762.333 2.429 1 .667.667 1 1.476 1 2.429zM29 16c0-2.81-.19-4.905-.571-6.286-.286-1.238-1.048-2-2.286-2.285-.572-.19-1.714-.334-3.429-.429a81.742 81.742 0 0 0-4.643-.143H16c-5.429 0-8.81.19-10.143.572-1.238.285-2 1.047-2.286 2.285-.19.62-.333 1.453-.428 2.5A30.565 30.565 0 0 0 3 14.93V16c0 2.857.19 4.952.571 6.286.286 1.238 1.048 2 2.286 2.285.572.19 1.69.334 3.357.429a85.56 85.56 0 0 0 4.715.143H16c5.429 0 8.81-.19 10.143-.572 1.238-.333 2-1.095 2.286-2.285.19-.572.333-1.381.428-2.429.095-1.047.143-1.952.143-2.714V16z" fill="#CD201F"/></svg>