<svg width="9" height="6" viewBox="0 0 9 6" fill="none" xmlns="http://www.w3.org/2000/svg">
<path d="M8.88951 1.5346L4.74888 5.66964C4.6782 5.74033 4.59449 5.77567 4.49777 5.77567C4.40104 5.77567 4.31734 5.74033 4.24665 5.66964L0.106027 1.5346C0.0353422 1.46391 0 1.38021 0 1.28348C0 1.18304 0.0353422 1.09747 0.106027 1.02679L1.03237 0.106027C1.10305 0.0353423 1.18676 0 1.28348 0C1.38021 0 1.46391 0.0353423 1.5346 0.106027L4.49777 3.0692L7.46094 0.106027C7.53162 0.0353423 7.61533 0 7.71205 0C7.80878 0 7.89249 0.0353423 7.96317 0.106027L8.88951 1.02679C8.96019 1.09747 8.99554 1.18304 8.99554 1.28348C8.99554 1.38021 8.96019 1.46391 8.88951 1.5346Z" fill="#A2AAAE"/>
</svg>
