<svg width="6" height="9" viewBox="0 0 6 9" fill="none" xmlns="http://www.w3.org/2000/svg">
<path d="M1.5346 0.110491L5.66964 4.25112C5.74033 4.3218 5.77567 4.40551 5.77567 4.50223C5.77567 4.59896 5.74033 4.68266 5.66964 4.75335L1.5346 8.89397C1.46391 8.96466 1.38021 9 1.28348 9C1.18304 9 1.09747 8.96466 1.02679 8.89397L0.106027 7.96763C0.0353423 7.89695 -5.18748e-08 7.81324 -5.61028e-08 7.71652C-6.03308e-08 7.61979 0.0353422 7.53609 0.106027 7.4654L3.0692 4.50223L0.106026 1.53906C0.035342 1.46838 -3.32877e-07 1.38467 -3.37105e-07 1.28795C-3.41333e-07 1.19122 0.035342 1.10751 0.106026 1.03683L1.02678 0.110491C1.09747 0.0398063 1.18304 0.0044641 1.28348 0.00446409C1.38021 0.00446409 1.46391 0.0398063 1.5346 0.110491Z" fill="#A2AAAE"/>
</svg>
