<svg width="6" height="9" viewBox="0 0 6 9" fill="none" xmlns="http://www.w3.org/2000/svg">
<path d="M4.4654 8.88951L0.330356 4.74888C0.259672 4.6782 0.22433 4.59449 0.22433 4.49777C0.22433 4.40104 0.259672 4.31734 0.330356 4.24665L4.4654 0.106027C4.53609 0.0353422 4.61979 -6.03308e-08 4.71652 -5.61028e-08C4.81696 -5.17121e-08 4.90253 0.0353422 4.97321 0.106027L5.89397 1.03237C5.96466 1.10305 6 1.18676 6 1.28348C6 1.38021 5.96466 1.46391 5.89397 1.5346L2.9308 4.49777L5.89397 7.46094C5.96466 7.53162 6 7.61533 6 7.71205C6 7.80878 5.96466 7.89249 5.89397 7.96317L4.97321 8.88951C4.90253 8.96019 4.81696 8.99554 4.71652 8.99554C4.61979 8.99554 4.53609 8.96019 4.4654 8.88951Z" fill="#039BE5"/>
</svg>
