<svg width="20" height="20" viewBox="0 0 20 20" fill="none" xmlns="http://www.w3.org/2000/svg">
<path d="M17.8571 0C18.4524 0 18.9583 0.208333 19.375 0.625C19.7917 1.04167 20 1.54762 20 2.14286V17.8571C20 18.4524 19.7917 18.9583 19.375 19.375C18.9583 19.7917 18.4524 20 17.8571 20H11.7411V13.2143H14.3304L14.8214 10H11.7411V7.90179C11.7411 6.77083 12.3363 6.20536 13.5268 6.20536H14.9107V3.48214C14.0774 3.33333 13.2589 3.25893 12.4554 3.25893C11.5923 3.25893 10.8482 3.42262 10.2232 3.75C9.62798 4.07738 9.15179 4.56845 8.79464 5.22321C8.4375 5.87798 8.25893 6.65179 8.25893 7.54464V10H5.44643V13.2143H8.25893V20H2.14286C1.54762 20 1.04167 19.7917 0.625 19.375C0.208333 18.9583 0 18.4524 0 17.8571V2.14286C0 1.54762 0.208333 1.04167 0.625 0.625C1.04167 0.208333 1.54762 0 2.14286 0H17.8571Z" fill="#939397"/>
</svg>
