<svg width="32" height="32" viewBox="0 0 32 32" fill="none" xmlns="http://www.w3.org/2000/svg">
<path d="M28.5714 0C29.5238 0 30.3333 0.333333 31 1C31.6667 1.66667 32 2.47619 32 3.42857V28.5714C32 29.5238 31.6667 30.3333 31 31C30.3333 31.6667 29.5238 32 28.5714 32H18.7857V21.1429H22.9286L23.7143 16H18.7857V12.6429C18.7857 10.8333 19.7381 9.92857 21.6429 9.92857H23.8571V5.57143C22.5238 5.33333 21.2143 5.21429 19.9286 5.21429C18.5476 5.21429 17.3571 5.47619 16.3571 6C15.4048 6.52381 14.6429 7.30952 14.0714 8.35714C13.5 9.40476 13.2143 10.6429 13.2143 12.0714V16H8.71429V21.1429H13.2143V32H3.42857C2.47619 32 1.66667 31.6667 1 31C0.333333 30.3333 0 29.5238 0 28.5714V3.42857C0 2.47619 0.333333 1.66667 1 1C1.66667 0.333333 2.47619 0 3.42857 0H28.5714Z" fill="#4267B2"/>
</svg>
