<svg width="20" height="20" viewBox="0 0 20 20" fill="none" xmlns="http://www.w3.org/2000/svg">
<path d="M6.33929 6.38393C7.35119 5.37202 8.57143 4.86607 10 4.86607C11.4286 4.86607 12.6339 5.37202 13.6161 6.38393C14.628 7.36607 15.1339 8.57143 15.1339 10C15.1339 11.4286 14.628 12.6488 13.6161 13.6607C12.6339 14.6429 11.4286 15.1339 10 15.1339C8.57143 15.1339 7.35119 14.6429 6.33929 13.6607C5.35714 12.6488 4.86607 11.4286 4.86607 10C4.86607 8.57143 5.35714 7.36607 6.33929 6.38393ZM7.63393 12.3661C8.28869 13.0208 9.07738 13.3482 10 13.3482C10.9226 13.3482 11.7113 13.0208 12.3661 12.3661C13.0208 11.7113 13.3482 10.9226 13.3482 10C13.3482 9.07738 13.0208 8.28869 12.3661 7.63393C11.7113 6.97917 10.9226 6.65179 10 6.65179C9.07738 6.65179 8.28869 6.97917 7.63393 7.63393C6.97917 8.28869 6.65179 9.07738 6.65179 10C6.65179 10.9226 6.97917 11.7113 7.63393 12.3661ZM16.1607 3.83929C16.3988 4.04762 16.5179 4.31548 16.5179 4.64286C16.5179 4.97024 16.3988 5.25298 16.1607 5.49107C15.9524 5.72917 15.6845 5.84821 15.3571 5.84821C15.0298 5.84821 14.747 5.72917 14.5089 5.49107C14.2708 5.25298 14.1518 4.97024 14.1518 4.64286C14.1518 4.31548 14.2708 4.04762 14.5089 3.83929C14.747 3.60119 15.0298 3.48214 15.3571 3.48214C15.6845 3.48214 15.9524 3.60119 16.1607 3.83929ZM19.9554 5.89286C19.9851 6.69643 20 8.06548 20 10C20 11.9345 19.9851 13.3036 19.9554 14.1071C19.8661 15.9226 19.3155 17.3363 18.3036 18.3482C17.3214 19.3304 15.9226 19.8512 14.1071 19.9107C13.3036 19.9702 11.9345 20 10 20C8.06548 20 6.69643 19.9702 5.89286 19.9107C4.07738 19.8214 2.67857 19.2857 1.69643 18.3036C1.30952 17.9464 0.997024 17.5298 0.758929 17.0536C0.520833 16.5774 0.342262 16.1161 0.223214 15.6696C0.133929 15.2232 0.0892857 14.7024 0.0892857 14.1071C0.0297619 13.3036 0 11.9345 0 10C0 8.06548 0.0297619 6.68155 0.0892857 5.84821C0.178571 4.0625 0.714286 2.67857 1.69643 1.69643C2.67857 0.684524 4.07738 0.133929 5.89286 0.0446429C6.69643 0.014881 8.06548 0 10 0C11.9345 0 13.3036 0.014881 14.1071 0.0446429C15.9226 0.133929 17.3214 0.684524 18.3036 1.69643C19.3155 2.67857 19.8661 4.07738 19.9554 5.89286ZM17.8125 15.8929C17.9018 15.6548 17.9762 15.3571 18.0357 15C18.0952 14.6131 18.1399 14.1667 18.1696 13.6607C18.1994 13.125 18.2143 12.6935 18.2143 12.3661C18.2143 12.0387 18.2143 11.5774 18.2143 10.9821C18.2143 10.3869 18.2143 10.0595 18.2143 10C18.2143 9.91071 18.2143 9.58333 18.2143 9.01786C18.2143 8.42262 18.2143 7.96131 18.2143 7.63393C18.2143 7.30655 18.1994 6.88988 18.1696 6.38393C18.1399 5.84821 18.0952 5.40179 18.0357 5.04464C17.9762 4.65774 17.9018 4.34524 17.8125 4.10714C17.4554 3.18452 16.8155 2.54464 15.8929 2.1875C15.6548 2.09821 15.3423 2.02381 14.9554 1.96429C14.5982 1.90476 14.1518 1.86012 13.6161 1.83036C13.1101 1.8006 12.6935 1.78571 12.3661 1.78571C12.0685 1.78571 11.6071 1.78571 10.9821 1.78571C10.3869 1.78571 10.0595 1.78571 10 1.78571C9.94048 1.78571 9.6131 1.78571 9.01786 1.78571C8.42262 1.78571 7.96131 1.78571 7.63393 1.78571C7.30655 1.78571 6.875 1.8006 6.33929 1.83036C5.83333 1.86012 5.3869 1.90476 5 1.96429C4.64286 2.02381 4.34524 2.09821 4.10714 2.1875C3.18452 2.54464 2.54464 3.18452 2.1875 4.10714C2.09821 4.34524 2.02381 4.65774 1.96429 5.04464C1.90476 5.40179 1.86012 5.84821 1.83036 6.38393C1.8006 6.88988 1.78571 7.30655 1.78571 7.63393C1.78571 7.93155 1.78571 8.39286 1.78571 9.01786C1.78571 9.6131 1.78571 9.94048 1.78571 10C1.78571 10.119 1.78571 10.4018 1.78571 10.8482C1.78571 11.2649 1.78571 11.622 1.78571 11.9196C1.78571 12.1875 1.78571 12.5446 1.78571 12.9911C1.81548 13.4375 1.84524 13.8244 1.875 14.1518C1.90476 14.4494 1.9494 14.7619 2.00893 15.0893C2.06845 15.4167 2.12798 15.6845 2.1875 15.8929C2.5744 16.8155 3.21429 17.4554 4.10714 17.8125C4.34524 17.9018 4.64286 17.9762 5 18.0357C5.3869 18.0952 5.83333 18.1399 6.33929 18.1696C6.875 18.1994 7.29167 18.2143 7.58929 18.2143C7.91667 18.2143 8.37798 18.2143 8.97321 18.2143C9.59821 18.2143 9.94048 18.2143 10 18.2143C10.0893 18.2143 10.4167 18.2143 10.9821 18.2143C11.5774 18.2143 12.0387 18.2143 12.3661 18.2143C12.6935 18.2143 13.1101 18.1994 13.6161 18.1696C14.1518 18.1399 14.5982 18.0952 14.9554 18.0357C15.3423 17.9762 15.6548 17.9018 15.8929 17.8125C16.8155 17.4256 17.4554 16.7857 17.8125 15.8929Z" fill="#939397"/>
</svg>
