<svg width="32" height="32" viewBox="0 0 32 32" fill="none" xmlns="http://www.w3.org/2000/svg">
<path d="M10.1429 10.2143C11.7619 8.59524 13.7143 7.78571 16 7.78571C18.2857 7.78571 20.2143 8.59524 21.7857 10.2143C23.4048 11.7857 24.2143 13.7143 24.2143 16C24.2143 18.2857 23.4048 20.2381 21.7857 21.8571C20.2143 23.4286 18.2857 24.2143 16 24.2143C13.7143 24.2143 11.7619 23.4286 10.1429 21.8571C8.57143 20.2381 7.78571 18.2857 7.78571 16C7.78571 13.7143 8.57143 11.7857 10.1429 10.2143ZM12.2143 19.7857C13.2619 20.8333 14.5238 21.3571 16 21.3571C17.4762 21.3571 18.7381 20.8333 19.7857 19.7857C20.8333 18.7381 21.3571 17.4762 21.3571 16C21.3571 14.5238 20.8333 13.2619 19.7857 12.2143C18.7381 11.1667 17.4762 10.6429 16 10.6429C14.5238 10.6429 13.2619 11.1667 12.2143 12.2143C11.1667 13.2619 10.6429 14.5238 10.6429 16C10.6429 17.4762 11.1667 18.7381 12.2143 19.7857ZM25.8571 6.14286C26.2381 6.47619 26.4286 6.90476 26.4286 7.42857C26.4286 7.95238 26.2381 8.40476 25.8571 8.78572C25.5238 9.16667 25.0952 9.35714 24.5714 9.35714C24.0476 9.35714 23.5952 9.16667 23.2143 8.78572C22.8333 8.40476 22.6429 7.95238 22.6429 7.42857C22.6429 6.90476 22.8333 6.47619 23.2143 6.14286C23.5952 5.76191 24.0476 5.57143 24.5714 5.57143C25.0952 5.57143 25.5238 5.76191 25.8571 6.14286ZM31.9286 9.42857C31.9762 10.7143 32 12.9048 32 16C32 19.0952 31.9762 21.2857 31.9286 22.5714C31.7857 25.4762 30.9048 27.7381 29.2857 29.3571C27.7143 30.9286 25.4762 31.7619 22.5714 31.8571C21.2857 31.9524 19.0952 32 16 32C12.9048 32 10.7143 31.9524 9.42857 31.8571C6.52381 31.7143 4.28571 30.8571 2.71429 29.2857C2.09524 28.7143 1.59524 28.0476 1.21429 27.2857C0.833333 26.5238 0.547619 25.7857 0.357143 25.0714C0.214286 24.3571 0.142857 23.5238 0.142857 22.5714C0.0476191 21.2857 0 19.0952 0 16C0 12.9048 0.0476191 10.6905 0.142857 9.35714C0.285714 6.5 1.14286 4.28571 2.71429 2.71429C4.28571 1.09524 6.52381 0.214286 9.42857 0.0714286C10.7143 0.0238095 12.9048 0 16 0C19.0952 0 21.2857 0.0238095 22.5714 0.0714286C25.4762 0.214286 27.7143 1.09524 29.2857 2.71429C30.9048 4.28571 31.7857 6.52381 31.9286 9.42857ZM28.5 25.4286C28.6429 25.0476 28.7619 24.5714 28.8571 24C28.9524 23.381 29.0238 22.6667 29.0714 21.8571C29.119 21 29.1429 20.3095 29.1429 19.7857C29.1429 19.2619 29.1429 18.5238 29.1429 17.5714C29.1429 16.619 29.1429 16.0952 29.1429 16C29.1429 15.8571 29.1429 15.3333 29.1429 14.4286C29.1429 13.4762 29.1429 12.7381 29.1429 12.2143C29.1429 11.6905 29.119 11.0238 29.0714 10.2143C29.0238 9.35714 28.9524 8.64286 28.8571 8.07143C28.7619 7.45238 28.6429 6.95238 28.5 6.57143C27.9286 5.09524 26.9048 4.07143 25.4286 3.5C25.0476 3.35714 24.5476 3.2381 23.9286 3.14286C23.3571 3.04762 22.6429 2.97619 21.7857 2.92857C20.9762 2.88095 20.3095 2.85714 19.7857 2.85714C19.3095 2.85714 18.5714 2.85714 17.5714 2.85714C16.619 2.85714 16.0952 2.85714 16 2.85714C15.9048 2.85714 15.381 2.85714 14.4286 2.85714C13.4762 2.85714 12.7381 2.85714 12.2143 2.85714C11.6905 2.85714 11 2.88095 10.1429 2.92857C9.33333 2.97619 8.61905 3.04762 8 3.14286C7.42857 3.2381 6.95238 3.35714 6.57143 3.5C5.09524 4.07143 4.07143 5.09524 3.5 6.57143C3.35714 6.95238 3.2381 7.45238 3.14286 8.07143C3.04762 8.64286 2.97619 9.35714 2.92857 10.2143C2.88095 11.0238 2.85714 11.6905 2.85714 12.2143C2.85714 12.6905 2.85714 13.4286 2.85714 14.4286C2.85714 15.381 2.85714 15.9048 2.85714 16C2.85714 16.1905 2.85714 16.6429 2.85714 17.3571C2.85714 18.0238 2.85714 18.5952 2.85714 19.0714C2.85714 19.5 2.85714 20.0714 2.85714 20.7857C2.90476 21.5 2.95238 22.119 3 22.6429C3.04762 23.119 3.11905 23.619 3.21429 24.1429C3.30952 24.6667 3.40476 25.0952 3.5 25.4286C4.11905 26.9048 5.14286 27.9286 6.57143 28.5C6.95238 28.6429 7.42857 28.7619 8 28.8571C8.61905 28.9524 9.33333 29.0238 10.1429 29.0714C11 29.119 11.6667 29.1429 12.1429 29.1429C12.6667 29.1429 13.4048 29.1429 14.3571 29.1429C15.3571 29.1429 15.9048 29.1429 16 29.1429C16.1429 29.1429 16.6667 29.1429 17.5714 29.1429C18.5238 29.1429 19.2619 29.1429 19.7857 29.1429C20.3095 29.1429 20.9762 29.119 21.7857 29.0714C22.6429 29.0238 23.3571 28.9524 23.9286 28.8571C24.5476 28.7619 25.0476 28.6429 25.4286 28.5C26.9048 27.881 27.9286 26.8571 28.5 25.4286Z" fill="url(#paint0_linear)"/>
<defs>
<linearGradient id="paint0_linear" x1="-2.83681e-08" y1="31.746" x2="32.5079" y2="0.253968" gradientUnits="userSpaceOnUse">
<stop stop-color="#FFC047"/>
<stop offset="0.489583" stop-color="#E6007D"/>
<stop offset="1" stop-color="#5541D6"/>
</linearGradient>
</defs>
</svg>
