<svg width="32" height="32" viewBox="0 0 32 32" fill="none" xmlns="http://www.w3.org/2000/svg">
<path d="M13.3571 12.1429L20.1429 16L13.3571 19.8571V12.1429ZM32 3.42857V28.5714C32 29.5238 31.6667 30.3333 31 31C30.3333 31.6667 29.5238 32 28.5714 32H3.42857C2.47619 32 1.66667 31.6667 1 31C0.333333 30.3333 0 29.5238 0 28.5714V3.42857C0 2.47619 0.333333 1.66667 1 1C1.66667 0.333333 2.47619 0 3.42857 0H28.5714C29.5238 0 30.3333 0.333333 31 1C31.6667 1.66667 32 2.47619 32 3.42857ZM29 16C29 13.1905 28.8095 11.0952 28.4286 9.71429C28.1429 8.47619 27.381 7.71429 26.1429 7.42857C25.5714 7.2381 24.4286 7.09524 22.7143 7C21.0476 6.90476 19.5 6.85714 18.0714 6.85714H16C10.5714 6.85714 7.19048 7.04762 5.85714 7.42857C4.61905 7.71429 3.85714 8.47619 3.57143 9.71429C3.38095 10.3333 3.2381 11.1667 3.14286 12.2143C3.04762 13.2619 3 14.1667 3 14.9286V16C3 18.8571 3.19048 20.9524 3.57143 22.2857C3.85714 23.5238 4.61905 24.2857 5.85714 24.5714C6.42857 24.7619 7.54762 24.9048 9.21429 25C10.9286 25.0952 12.5 25.1429 13.9286 25.1429H16C21.4286 25.1429 24.8095 24.9524 26.1429 24.5714C27.381 24.2381 28.1429 23.4762 28.4286 22.2857C28.619 21.7143 28.7619 20.9048 28.8571 19.8571C28.9524 18.8095 29 17.9048 29 17.1429V16Z" fill="#CD201F"/>
</svg>
